HIERARCHY
ROOT Hips
{
  OFFSET 265.287 66.7526 -254.649
  CHANNELS 6 Xposition Yposition Zposition Zrotation Xrotation Yrotation
  JOINT LeftUpLeg
  {
    OFFSET 8.64259 1.95398 -2.38835
    CHANNELS 3 Zrotation Xrotation Yrotation
    JOINT LeftLeg
    {
      OFFSET 43.7702 0 0
      CHANNELS 3 Zrotation Xrotation Yrotation
      JOINT LeftFoot
      {
        OFFSET 40.6238 0 0
        CHANNELS 3 Zrotation Xrotation Yrotation
        JOINT LeftToeBase
        {
          OFFSET 12.7242 0 0
          CHANNELS 3 Zrotation Xrotation Yrotation
          End Site
          {
            OFFSET 0 0 0
          }
        }
      }
    }
  }
  JOINT RightUpLeg
  {
    OFFSET -8.2249 1.95398 -2.59336
    CHANNELS 3 Zrotation Xrotation Yrotation
    JOINT RightLeg
    {
      OFFSET 43.5653 0 0
      CHANNELS 3 Zrotation Xrotation Yrotation
      JOINT RightFoot
      {
        OFFSET 40.6238 0 0
        CHANNELS 3 Zrotation Xrotation Yrotation
        JOINT RightToeBase
        {
          OFFSET 12.7242 0 0
          CHANNELS 3 Zrotation Xrotation Yrotation
          End Site
          {
            OFFSET 0 0 0
          }
        }
      }
    }
  }
  JOINT Spine
  {
    OFFSET 0.165834 0.87714 6.61349
    CHANNELS 3 Zrotation Xrotation Yrotation
    JOINT Spine1
    {
      OFFSET 7.38963 1.71661e-005 0
      CHANNELS 3 Zrotation Xrotation Yrotation
      JOINT Spine2
      {
        OFFSET 11.9445 1.14441e-005 0
        CHANNELS 3 Zrotation Xrotation Yrotation
        JOINT Spine3
        {
          OFFSET 14.7254 4.19617e-005 0
          CHANNELS 3 Zrotation Xrotation Yrotation
          JOINT Spine4
          {
            OFFSET 10.9679 0 0
            CHANNELS 3 Zrotation Xrotation Yrotation
            JOINT RightShoulder
            {
              OFFSET 2.46616 -1.6653 3.69651
              CHANNELS 3 Zrotation Xrotation Yrotation
              JOINT RightArm
              {
                OFFSET 13.0012 0 0
                CHANNELS 3 Zrotation Xrotation Yrotation
                JOINT RightForeArm
                {
                  OFFSET 28.7848 1.52588e-005 0
                  CHANNELS 3 Zrotation Xrotation Yrotation
                  JOINT RightHand
                  {
                    OFFSET 26.5688 1.52588e-005 0
                    CHANNELS 3 Zrotation Xrotation Yrotation
                    End Site
                    {
                      OFFSET 0 0 0
                    }
                  }
                }
              }
            }
            JOINT LeftShoulder
            {
              OFFSET 2.38034 -1.29275 -3.7523
              CHANNELS 3 Zrotation Xrotation Yrotation
              JOINT LeftArm
              {
                OFFSET 16.3182 6.10351e-005 0
                CHANNELS 3 Zrotation Xrotation Yrotation
                JOINT LeftForeArm
                {
                  OFFSET 27.0901 0 0
                  CHANNELS 3 Zrotation Xrotation Yrotation
                  JOINT LeftHand
                  {
                    OFFSET 24.5451 1.52588e-005 0
                    CHANNELS 3 Zrotation Xrotation Yrotation
                    End Site
                    {
                      OFFSET 0 0 0
                    }
                  }
                }
              }
            }
            JOINT Neck
            {
              OFFSET 5.0226 -0.0266342 0
              CHANNELS 3 Zrotation Xrotation Yrotation
              JOINT Head
              {
                OFFSET 6.69364 2.86102e-005 0
                CHANNELS 3 Zrotation Xrotation Yrotation
                End Site
                {
                  OFFSET 0 0 0
                }
              }
            }
          }
        }
      }
    }
  }
}
MOTION
Frames:	15
Frame Time:	0.0416667
174.358 98.8745 -181.721 97.0026 52.409 85.5008 -176.196 6.67624 88.3357 -19.5445 21.7263 3.28563 56.8545 0.869083 16.6419 38.7734 -3.03595 -2.82884 176.758 9.62022 89.1143 -25.0127 -8.39135 -1.20128 58.9454 2.57025 11.2236 33.6041 -0.768992 0.974804 0.0213534 8.03478 -90.2127 10.804 -0.0556071 -0.417792 -0.866983 -0.0739415 -0.414931 -23.4016 0.0725142 -0.415192 -3.38896 0.0725163 -0.415183 100.696 -53.4747 -84.3638 27.4823 -6.20409 -7.60497 -0.104677 -14.0404 -16.7105 -13.8494 -0.766345 1.27466 -84.2754 -53.1252 87.4614 -20.234 15.9042 -23.9783 2.80025 11.8498 -13.3704 4.8819 -0.254383 -6.95449 -28.0953 -13.1618 14.6237 42.3891 -18.6526 -16.2239 
171.538 96.5108 -178.294 95.9395 53.5572 84.1695 -179.202 16.5186 85.4394 -31.2714 19.1142 3.54417 57.8772 1.5354 16.7931 40.07 -3.47182 -2.46476 175.764 21.7225 86.575 -39.6828 -7.64402 -0.789451 59.2053 2.60505 14.2181 33.1652 -0.577027 -0.67145 0.176248 8.61745 -90.0929 9.638 0.309301 -0.205427 -2.03293 0.299987 -0.218851 -24.5682 0.356754 -0.102964 -4.55561 0.356745 -0.102977 100.673 -51.0921 -84.4625 29.9361 -6.8079 -6.42888 0.0532953 -10.8035 -19.4451 -16.7893 -0.874279 0.86354 -84.9307 -52.949 86.4847 -17.0364 17.5229 -27.2914 4.95879 11.7291 -20.4157 7.81167 -0.307555 -6.8184 -10.5165 -12.6946 30.9974 20.4374 -21.8101 -35.1251 
167.865 92.2623 -173.625 95.2506 60.4375 82.1132 179.036 33.327 82.8693 -48.1438 21.0083 2.16328 50.7512 -2.22315 8.33781 42.0102 -4.09133 -0.816855 173.517 34.7026 82.2746 -52.6491 -13.123 0.121676 55.2243 4.17503 10.1486 41.2666 -1.78765 2.66811 -0.0190956 9.67249 -90.3833 7.53638 -0.204062 -0.764768 -4.13472 -0.237512 -0.755061 -26.6688 0.0352182 -0.790741 -6.65612 0.0352355 -0.790741 99.853 -47.2061 -85.8991 31.8625 -4.71101 -7.39469 -1.76956 -6.01903 -28.4226 -16.1037 -0.818313 0.738984 -87.4241 -55.7872 83.2933 -10.6168 16.3781 -34.2344 6.77641 9.46514 -27.799 10.0463 -0.564362 -8.63942 25.9356 1.4403 53.7023 -22.5783 -9.17254 -60.0197 
164.729 87.8671 -168.967 101.455 63.1278 77.1102 -177.43 43.9427 83.0572 -62.5279 23.0644 0.30722 47.1956 -4.04006 6.1359 41.3197 -3.87225 1.08628 173.86 40.9528 81.5033 -60.725 -15.1822 -0.0495873 49.0868 7.231 9.12879 51.7038 -3.09685 2.48912 0.107983 10.9888 -91.0051 4.8876 -0.196839 -1.96574 -6.78482 -0.283147 -1.95519 -29.308 0.402894 -1.93407 -9.29538 0.402904 -1.93407 100.069 -49.3261 -85.4605 23.9829 -0.0374131 -18.6631 -4.48047 -4.25685 -38.7953 -13.4529 -0.495561 -0.977131 -90.3949 -54.8398 78.906 -14.9988 11.1718 -39.2102 2.69654 1.42184 -18.3785 16.5807 -1.14452 -10.6969 45.2301 10.1483 56.6676 -42.754 1.73717 -67.0289 
161.143 83.9914 -166.101 105.05 59.9803 76.5983 -179.916 47.3919 87.7768 -84.439 19.764 1.14502 55.1092 -0.0912616 8.16316 42.2105 -4.11871 1.82118 174.812 44.884 83.7582 -65.7855 -15.181 -0.48208 50.1936 6.52288 7.80223 48.1753 -2.62709 2.90243 0.00212113 11.7216 -91.6119 3.41088 -0.637516 -3.15576 -8.26366 -0.775726 -3.12469 -30.7682 0.339861 -3.20147 -10.7555 0.339869 -3.20147 99.2001 -46.8456 -86.9737 18.9457 1.24321 -28.7307 -5.59156 -2.10778 -55.4824 -14.4084 -0.215215 -3.5376 -94.3924 -55.9791 73.5577 -10.8931 10.3184 -38.3425 -0.645259 1.0962 -8.7894 12.2531 -0.660244 -8.80711 53.4213 17.3446 57.1527 -51.5355 9.08668 -66.5727 
157.381 82.091 -163.145 110.703 62.1677 73.6237 171.091 40.7962 94.955 -99.1986 16.7138 1.69204 55.0724 0.563809 9.12015 45.9387 -5.18534 2.23378 173.165 44.51 84.4446 -64.9923 -15.8979 0.41078 54.9819 4.01058 3.05976 41.545 -1.83002 1.05085 -0.367627 11.5779 -91.7283 3.68276 -1.42659 -3.38212 -7.99167 -1.57397 -3.31617 -30.492 -0.344949 -3.65414 -10.4794 -0.344958 -3.65414 100.055 -48.5472 -85.5191 20.126 -1.11442 -18.384 -3.65294 -1.27489 -50.3007 -13.9943 -0.0835862 -4.61085 -94.1023 -54.7524 73.6546 -6.58416 7.98993 -40.8086 -0.252075 -1.58383 -16.2161 13.1452 -0.767944 -9.33097 51.4908 15.6037 54.586 -50.2145 8.21908 -63.8677 
151.773 85.4895 -157.357 114.777 68.1089 68.5038 168.658 33.6785 95.8806 -93.5087 15.909 3.0431 61.629 4.45936 12.1157 40.0509 -3.44794 -0.7756 173.57 37.706 79.2416 -43.4974 -13.3012 0.796413 47.1743 8.39707 9.94386 31.7442 -0.152065 -2.6274 -0.990091 11.205 -91.1974 4.4403 -2.4657 -2.32817 -7.22992 -2.56578 -2.21742 -29.7596 -1.65216 -2.9612 -9.74696 -1.65217 -2.96121 100.387 -54.3788 -84.7892 25.7509 -5.70869 5.58179 2.64902 3.43732 -36.2919 -12.1 -0.204269 -3.53353 -90.803 -48.0331 76.8181 -9.7435 1.95264 -50.1001 8.26686 -0.619169 -44.7252 16.5148 -1.16161 -10.7393 42.7833 8.77786 49.7675 -38.3696 0.0825556 -58.7886 
141.42 90.687 -150.261 102.657 63.5602 77.0609 173.479 34.4975 88.6899 -73.6074 24.1268 3.94101 59.2822 1.42164 6.52502 42.9629 -4.44719 -3.27812 174.455 34.2719 76.6215 -22.9312 -12.2019 0.45248 28.5911 13.7194 26.3226 44.7648 -2.54886 -6.54543 -0.513864 11.0173 -90.7459 4.82508 -1.33267 -1.44638 -6.84611 -1.39503 -1.38634 -29.3758 -0.836514 -1.77994 -9.3632 -0.836501 -1.77993 98.2208 -55.1042 -87.9505 30.3373 -6.2788 14.5698 8.7189 12.306 -35.5533 -14.6413 -0.205249 -3.7287 -89.5512 -46.9265 78.506 -12.9829 0.25899 -53.1687 15.5116 0.769445 -59.9012 20.9287 -1.03417 -9.02273 33.3779 4.9486 52.3801 -22.7644 -9.42298 -55.5039 
130.837 88.6867 -144.58 106.912 46.4877 78.0512 175.799 28.5859 87.7357 -63.4779 28.9576 5.16759 58.3269 1.50481 14.6999 47.8664 -5.91879 -0.542459 172.99 40.7709 80.9435 -80.3683 -12.0826 -2.18103 44.9859 7.91819 14.9936 43.9235 -2.20723 -1.11748 0.168149 11.3625 -90.3395 4.14886 0.198814 -0.666138 -7.52223 0.169303 -0.674246 -30.0564 0.38981 -0.575593 -10.0438 0.389821 -0.575593 100.281 -54.0505 -84.9645 24.1607 -1.76711 -2.91124 5.31634 7.05719 -51.1801 -14.9694 -0.0266877 -5.09641 -88.7503 -50.1712 80.3973 -13.4841 2.40555 -25.6976 9.91081 1.30722 -41.239 22.2309 -1.21011 -9.50088 26.4969 3.19343 28.2409 -4.49072 -7.28412 -26.9487 
120.344 86.7956 -137.754 103.398 34.5458 81.2092 179.452 31.6555 87.1701 -54.065 23.8931 4.01669 58.0125 2.55802 21.4587 42.4882 -4.27373 -0.844892 179.074 38.5415 79.822 -106.911 -22.0791 -4.14795 49.5227 6.16032 11.0882 47.5042 -2.54504 3.2347 0.418655 10.8903 -89.7108 5.08687 0.955641 0.553922 -6.58392 0.97908 0.511315 -29.1191 0.744992 0.81552 -9.10647 0.744975 0.815503 100.808 -48.1075 -84.3376 25.6501 -4.75239 -16.0639 -10.8243 -1.19711 -84.6275 -16.069 0.27163 -7.45701 -88.2482 -56.1533 82.1903 -18.6201 11.5615 6.80918 2.17935 -1.00111 -25.9384 20.269 -0.386484 -5.93393 27.3571 3.85916 12.4241 -2.89531 -0.941071 -10.1664 
108.352 90.7132 -125.382 96.5392 37.2364 87.304 178.693 35.8048 92.601 -34.7048 22.059 5.72304 37.6434 -7.82698 -2.63886 47.7228 -5.27935 5.33677 170.043 32.0759 90.339 -75.6765 -25.6367 0.298411 47.9605 7.36676 12.9363 52.4382 -3.11725 3.33316 0.686532 10.6799 -89.9669 5.5158 1.38539 0.0381706 -6.15443 1.38571 -0.0228548 -28.695 1.30985 0.452842 -8.6824 1.30986 0.452836 100.363 -46.2937 -85.111 23.1245 -14.0251 -15.2959 -16.0364 -1.02873 -88.3469 -14.2817 0.00706743 -5.85197 -89.0476 -55.0173 80.8609 -21.7887 11.1278 5.24283 1.16501 -3.19682 -24.9952 16.9226 -0.890306 -9.03481 22.1564 0.74107 10.3117 7.36373 -3.02788 -3.33508 
96.7465 88.9126 -112.993 103.915 48.8689 80.7006 175.869 38.5078 92.4554 -73.2823 12.4982 2.87015 45.0942 -3.74345 1.05199 52.4314 -6.38169 8.67882 167.862 28.2349 92.1207 -60.9327 -20.1502 4.06372 55.9557 3.09426 1.63541 47.5846 -2.52721 4.44692 0.112544 11.1847 -90.2023 4.50497 0.142526 -0.402771 -7.16601 0.124683 -0.408662 -29.7011 0.257001 -0.341314 -9.68847 0.256995 -0.341321 100.175 -49.7867 -85.273 24.9219 -11.2101 -7.64306 -14.2635 -6.7484 -56.2761 -12.6814 -0.123486 -4.38562 -89.9206 -53.0247 79.2286 -9.50598 8.51443 -22.5328 5.82521 3.68528 -27.8657 17.7819 -0.918358 -9.02779 21.9177 -0.2037 6.93858 3.58495 -2.57395 -1.97694 
84.5811 89.0596 -100.841 101.93 54.9999 81.158 175.387 34.1299 94.8954 -98.1294 14.1423 1.52894 47.9796 -2.08018 9.03816 42.3745 -4.17989 0.952984 169.016 33.7268 90.5309 -46.4748 -16.0876 6.92155 59.0925 1.836 -1.13631 26.1806 0.383872 -0.0302002 -0.720864 10.809 -90.0591 5.25509 -1.46477 -0.0866181 -6.41504 -1.46719 -0.0220635 -28.9562 -1.37102 -0.522926 -8.94352 -1.37103 -0.522937 100.771 -53.3083 -84.255 30.9186 -4.34563 11.1878 -9.8752 -10.9109 -45.8061 -13.5531 -0.350334 -2.24249 -88.3844 -50.3878 80.9859 -5.59958 -0.399519 -36.7747 9.60308 -0.924852 -49.4456 17.4225 -1.41341 -11.9411 22.3847 0.612245 0.0870537 -0.389191 0.67239 4.17024 
69.1289 93.0474 -88.1112 92.7515 50.9946 85.3503 179.142 27.9909 89.0958 -73.6287 21.7338 2.49401 51.9067 -1.91866 5.68263 49.6388 -6.26801 2.21955 174.818 33.4358 85.1213 -19.8325 -11.1722 2.23485 26.3883 15.1353 25.9559 44.0741 -2.25877 -5.45635 -0.752072 10.8033 -89.59 5.27069 -1.33288 0.834126 -6.39998 -1.29486 0.891976 -28.9392 -1.52193 0.394922 -8.92657 -1.52194 0.394928 98.3561 -51.4611 -87.9956 33.1331 -10.6587 15.6096 -1.56603 -1.79181 -44.0163 -9.1066 0.0954313 -6.58809 -87.6357 -48.1369 81.712 -2.69513 -2.61233 -38.1405 11.9988 -2.41415 -62.9139 20.9865 -1.27697 -10.1062 30.4563 1.72284 -2.22584 -5.2868 2.422 8.07036 
54.0355 89.7267 -76.8115 95.8923 39.5617 83.8226 -178.583 25.8093 86.9703 -59.5117 26.8638 2.28225 59.6675 2.45993 11.2343 50.6412 -6.733 0.198745 173.731 40.0372 83.9423 -80.6754 -17.6495 -1.12747 42.6794 9.20882 17.008 43.6238 -2.17566 -0.323784 -0.114361 10.9303 -89.4952 5.01206 -0.0203958 0.990555 -6.65921 0.0232087 0.990485 -29.192 -0.317158 0.93863 -9.17937 -0.317154 0.93863 99.1802 -49.2815 -86.8583 27.7858 -11.7633 -0.430444 -4.32371 -2.21363 -56.8796 -10.417 0.0272068 -5.71083 -88.5199 -52.0792 81.0914 -5.42766 5.01775 -19.1256 8.29289 -0.105343 -42.6184 19.0022 -1.265 -10.6273 22.3863 3.95621 -2.58003 0.364628 4.97862 10.4459 
